<mxfile host="app.diagrams.net" modified="2021-12-29T11:14:46.342Z" agent="5.0 (Windows NT 6.1; Win64; x64) AppleWebKit/537.36 (KHTML, like Gecko) Chrome/70.0.3538.110 Safari/537.36" etag="Y1QuMi3W3p-qShrAdxV8" version="16.1.0" type="github">
  <diagram id="ynXPwQLvJUrb6YxIg4F5" name="Page-1">
    <mxGraphModel dx="1422" dy="790" grid="1" gridSize="10" guides="1" tooltips="1" connect="1" arrows="1" fold="1" page="1" pageScale="1" pageWidth="827" pageHeight="1169" math="0" shadow="0">
      <root>
        <mxCell id="0" />
        <mxCell id="1" parent="0" />
        <mxCell id="N1gCAhY11Nwy1vqOztYI-1" value="Person" style="rounded=0;whiteSpace=wrap;html=1;fillColor=#FFCCE6;strokeColor=#9673a6;" parent="1" vertex="1">
          <mxGeometry x="180" y="330" width="110" height="60" as="geometry" />
        </mxCell>
        <mxCell id="N1gCAhY11Nwy1vqOztYI-6" value="BirthDate" style="rounded=0;whiteSpace=wrap;html=1;fillColor=#FFCCE6;strokeColor=#9673a6;" parent="1" vertex="1">
          <mxGeometry x="180" y="120" width="110" height="60" as="geometry" />
        </mxCell>
        <mxCell id="N1gCAhY11Nwy1vqOztYI-31" style="edgeStyle=orthogonalEdgeStyle;rounded=0;orthogonalLoop=1;jettySize=auto;html=1;exitX=0.5;exitY=1;exitDx=0;exitDy=0;entryX=0.5;entryY=0;entryDx=0;entryDy=0;endArrow=none;endFill=0;" parent="1" source="N1gCAhY11Nwy1vqOztYI-7" target="N1gCAhY11Nwy1vqOztYI-13" edge="1">
          <mxGeometry relative="1" as="geometry" />
        </mxCell>
        <mxCell id="N1gCAhY11Nwy1vqOztYI-7" value="Horoscope" style="rounded=0;whiteSpace=wrap;html=1;fillColor=#FFCCE6;strokeColor=#9673a6;" parent="1" vertex="1">
          <mxGeometry x="530" y="330" width="110" height="60" as="geometry" />
        </mxCell>
        <mxCell id="N1gCAhY11Nwy1vqOztYI-8" value="BirthPlace" style="rounded=0;whiteSpace=wrap;html=1;fillColor=#FFCCE6;strokeColor=#9673a6;" parent="1" vertex="1">
          <mxGeometry x="180" y="540" width="110" height="60" as="geometry" />
        </mxCell>
        <mxCell id="N1gCAhY11Nwy1vqOztYI-9" value="Match" style="rounded=0;whiteSpace=wrap;html=1;fillColor=#FFCCE6;strokeColor=#9673a6;" parent="1" vertex="1">
          <mxGeometry x="530" y="540" width="110" height="60" as="geometry" />
        </mxCell>
        <mxCell id="N1gCAhY11Nwy1vqOztYI-22" style="edgeStyle=orthogonalEdgeStyle;rounded=0;orthogonalLoop=1;jettySize=auto;html=1;exitX=0.5;exitY=0;exitDx=0;exitDy=0;entryX=0.447;entryY=0.964;entryDx=0;entryDy=0;entryPerimeter=0;endArrow=none;endFill=0;" parent="1" source="N1gCAhY11Nwy1vqOztYI-10" target="N1gCAhY11Nwy1vqOztYI-6" edge="1">
          <mxGeometry relative="1" as="geometry" />
        </mxCell>
        <mxCell id="N1gCAhY11Nwy1vqOztYI-24" style="edgeStyle=orthogonalEdgeStyle;rounded=0;orthogonalLoop=1;jettySize=auto;html=1;exitX=0.5;exitY=1;exitDx=0;exitDy=0;entryX=0.455;entryY=0.061;entryDx=0;entryDy=0;entryPerimeter=0;endArrow=none;endFill=0;" parent="1" source="N1gCAhY11Nwy1vqOztYI-10" target="N1gCAhY11Nwy1vqOztYI-1" edge="1">
          <mxGeometry relative="1" as="geometry" />
        </mxCell>
        <mxCell id="N1gCAhY11Nwy1vqOztYI-10" value="has" style="rhombus;whiteSpace=wrap;html=1;fillColor=#CCE5FF;strokeColor=#10739e;" parent="1" vertex="1">
          <mxGeometry x="200" y="230" width="60" height="50" as="geometry" />
        </mxCell>
        <mxCell id="N1gCAhY11Nwy1vqOztYI-26" style="edgeStyle=orthogonalEdgeStyle;rounded=0;orthogonalLoop=1;jettySize=auto;html=1;exitX=0.5;exitY=0;exitDx=0;exitDy=0;entryX=0.455;entryY=1.019;entryDx=0;entryDy=0;entryPerimeter=0;endArrow=none;endFill=0;" parent="1" source="N1gCAhY11Nwy1vqOztYI-11" target="N1gCAhY11Nwy1vqOztYI-1" edge="1">
          <mxGeometry relative="1" as="geometry" />
        </mxCell>
        <mxCell id="N1gCAhY11Nwy1vqOztYI-29" style="edgeStyle=orthogonalEdgeStyle;rounded=0;orthogonalLoop=1;jettySize=auto;html=1;exitX=0.5;exitY=1;exitDx=0;exitDy=0;entryX=0.455;entryY=-0.036;entryDx=0;entryDy=0;entryPerimeter=0;endArrow=none;endFill=0;" parent="1" source="N1gCAhY11Nwy1vqOztYI-11" target="N1gCAhY11Nwy1vqOztYI-8" edge="1">
          <mxGeometry relative="1" as="geometry" />
        </mxCell>
        <mxCell id="N1gCAhY11Nwy1vqOztYI-11" value="has" style="rhombus;whiteSpace=wrap;html=1;fillColor=#CCE5FF;strokeColor=#10739e;" parent="1" vertex="1">
          <mxGeometry x="200" y="440" width="60" height="50" as="geometry" />
        </mxCell>
        <mxCell id="N1gCAhY11Nwy1vqOztYI-21" style="edgeStyle=orthogonalEdgeStyle;orthogonalLoop=1;jettySize=auto;html=1;exitX=0;exitY=0.5;exitDx=0;exitDy=0;rounded=0;endArrow=none;endFill=0;" parent="1" source="N1gCAhY11Nwy1vqOztYI-12" target="N1gCAhY11Nwy1vqOztYI-1" edge="1">
          <mxGeometry relative="1" as="geometry" />
        </mxCell>
        <mxCell id="N1gCAhY11Nwy1vqOztYI-30" style="edgeStyle=orthogonalEdgeStyle;rounded=0;orthogonalLoop=1;jettySize=auto;html=1;exitX=1;exitY=0.5;exitDx=0;exitDy=0;entryX=0;entryY=0.5;entryDx=0;entryDy=0;endArrow=none;endFill=0;" parent="1" source="N1gCAhY11Nwy1vqOztYI-12" target="N1gCAhY11Nwy1vqOztYI-7" edge="1">
          <mxGeometry relative="1" as="geometry" />
        </mxCell>
        <mxCell id="N1gCAhY11Nwy1vqOztYI-12" value="has" style="rhombus;whiteSpace=wrap;html=1;fillColor=#CCE5FF;strokeColor=#10739e;" parent="1" vertex="1">
          <mxGeometry x="380" y="335" width="60" height="50" as="geometry" />
        </mxCell>
        <mxCell id="N1gCAhY11Nwy1vqOztYI-32" style="edgeStyle=orthogonalEdgeStyle;rounded=0;orthogonalLoop=1;jettySize=auto;html=1;exitX=0.5;exitY=1;exitDx=0;exitDy=0;entryX=0.5;entryY=0;entryDx=0;entryDy=0;endArrow=none;endFill=0;" parent="1" source="N1gCAhY11Nwy1vqOztYI-13" target="N1gCAhY11Nwy1vqOztYI-9" edge="1">
          <mxGeometry relative="1" as="geometry" />
        </mxCell>
        <mxCell id="N1gCAhY11Nwy1vqOztYI-13" value="with" style="rhombus;whiteSpace=wrap;html=1;fillColor=#CCE5FF;strokeColor=#10739e;" parent="1" vertex="1">
          <mxGeometry x="555" y="440" width="60" height="50" as="geometry" />
        </mxCell>
        <mxCell id="N1gCAhY11Nwy1vqOztYI-50" style="rounded=0;orthogonalLoop=1;jettySize=auto;html=1;exitX=0.5;exitY=1;exitDx=0;exitDy=0;entryX=0.5;entryY=0;entryDx=0;entryDy=0;endArrow=none;endFill=0;" parent="1" source="N1gCAhY11Nwy1vqOztYI-33" target="N1gCAhY11Nwy1vqOztYI-6" edge="1">
          <mxGeometry relative="1" as="geometry" />
        </mxCell>
        <mxCell id="N1gCAhY11Nwy1vqOztYI-33" value="Day" style="ellipse;whiteSpace=wrap;html=1;fillColor=#E1D5E7;strokeColor=#56517e;" parent="1" vertex="1">
          <mxGeometry x="65" y="20" width="110" height="30" as="geometry" />
        </mxCell>
        <mxCell id="N1gCAhY11Nwy1vqOztYI-51" style="edgeStyle=none;rounded=0;orthogonalLoop=1;jettySize=auto;html=1;exitX=0.5;exitY=1;exitDx=0;exitDy=0;entryX=0.5;entryY=0;entryDx=0;entryDy=0;endArrow=none;endFill=0;" parent="1" source="N1gCAhY11Nwy1vqOztYI-34" target="N1gCAhY11Nwy1vqOztYI-6" edge="1">
          <mxGeometry relative="1" as="geometry" />
        </mxCell>
        <mxCell id="N1gCAhY11Nwy1vqOztYI-34" value="Month" style="ellipse;whiteSpace=wrap;html=1;fillColor=#E1D5E7;strokeColor=#56517e;" parent="1" vertex="1">
          <mxGeometry x="180" y="20" width="110" height="30" as="geometry" />
        </mxCell>
        <mxCell id="N1gCAhY11Nwy1vqOztYI-52" style="edgeStyle=none;rounded=0;orthogonalLoop=1;jettySize=auto;html=1;exitX=0.5;exitY=1;exitDx=0;exitDy=0;entryX=0.5;entryY=0;entryDx=0;entryDy=0;endArrow=none;endFill=0;" parent="1" source="N1gCAhY11Nwy1vqOztYI-35" target="N1gCAhY11Nwy1vqOztYI-6" edge="1">
          <mxGeometry relative="1" as="geometry" />
        </mxCell>
        <mxCell id="N1gCAhY11Nwy1vqOztYI-35" value="Year" style="ellipse;whiteSpace=wrap;html=1;fillColor=#E1D5E7;strokeColor=#56517e;" parent="1" vertex="1">
          <mxGeometry x="295" y="20" width="110" height="30" as="geometry" />
        </mxCell>
        <mxCell id="N1gCAhY11Nwy1vqOztYI-54" style="edgeStyle=none;rounded=0;orthogonalLoop=1;jettySize=auto;html=1;exitX=1;exitY=0.5;exitDx=0;exitDy=0;entryX=0;entryY=0.5;entryDx=0;entryDy=0;endArrow=none;endFill=0;" parent="1" source="N1gCAhY11Nwy1vqOztYI-36" target="N1gCAhY11Nwy1vqOztYI-1" edge="1">
          <mxGeometry relative="1" as="geometry" />
        </mxCell>
        <mxCell id="N1gCAhY11Nwy1vqOztYI-36" value="SSN" style="ellipse;whiteSpace=wrap;html=1;fillColor=#E1D5E7;strokeColor=#56517e;" parent="1" vertex="1">
          <mxGeometry y="330" width="110" height="30" as="geometry" />
        </mxCell>
        <mxCell id="N1gCAhY11Nwy1vqOztYI-55" style="edgeStyle=none;rounded=0;orthogonalLoop=1;jettySize=auto;html=1;exitX=1;exitY=0.5;exitDx=0;exitDy=0;endArrow=none;endFill=0;" parent="1" source="N1gCAhY11Nwy1vqOztYI-37" edge="1">
          <mxGeometry relative="1" as="geometry">
            <mxPoint x="180" y="359.9999999999998" as="targetPoint" />
          </mxGeometry>
        </mxCell>
        <mxCell id="N1gCAhY11Nwy1vqOztYI-37" value="Name" style="ellipse;whiteSpace=wrap;html=1;fillColor=#E1D5E7;strokeColor=#56517e;" parent="1" vertex="1">
          <mxGeometry y="370" width="110" height="30" as="geometry" />
        </mxCell>
        <mxCell id="N1gCAhY11Nwy1vqOztYI-64" style="edgeStyle=none;rounded=0;orthogonalLoop=1;jettySize=auto;html=1;exitX=1;exitY=1;exitDx=0;exitDy=0;endArrow=none;endFill=0;" parent="1" source="N1gCAhY11Nwy1vqOztYI-38" edge="1">
          <mxGeometry relative="1" as="geometry">
            <mxPoint x="580" y="329.9999999999998" as="targetPoint" />
          </mxGeometry>
        </mxCell>
        <mxCell id="N1gCAhY11Nwy1vqOztYI-38" value="hName" style="ellipse;whiteSpace=wrap;html=1;fillColor=#E1D5E7;strokeColor=#56517e;" parent="1" vertex="1">
          <mxGeometry x="400" y="170" width="110" height="30" as="geometry" />
        </mxCell>
        <mxCell id="N1gCAhY11Nwy1vqOztYI-56" style="edgeStyle=none;rounded=0;orthogonalLoop=1;jettySize=auto;html=1;exitX=0.5;exitY=0;exitDx=0;exitDy=0;entryX=0.5;entryY=1;entryDx=0;entryDy=0;endArrow=none;endFill=0;" parent="1" source="N1gCAhY11Nwy1vqOztYI-39" target="N1gCAhY11Nwy1vqOztYI-8" edge="1">
          <mxGeometry relative="1" as="geometry" />
        </mxCell>
        <mxCell id="N1gCAhY11Nwy1vqOztYI-39" value="City" style="ellipse;whiteSpace=wrap;html=1;fillColor=#E1D5E7;strokeColor=#56517e;" parent="1" vertex="1">
          <mxGeometry x="117.5" y="670" width="110" height="30" as="geometry" />
        </mxCell>
        <mxCell id="N1gCAhY11Nwy1vqOztYI-57" style="edgeStyle=none;rounded=0;orthogonalLoop=1;jettySize=auto;html=1;exitX=0.5;exitY=0;exitDx=0;exitDy=0;endArrow=none;endFill=0;" parent="1" source="N1gCAhY11Nwy1vqOztYI-40" edge="1">
          <mxGeometry relative="1" as="geometry">
            <mxPoint x="230" y="599.9999999999998" as="targetPoint" />
          </mxGeometry>
        </mxCell>
        <mxCell id="N1gCAhY11Nwy1vqOztYI-40" value="Country" style="ellipse;whiteSpace=wrap;html=1;fillColor=#E1D5E7;strokeColor=#56517e;" parent="1" vertex="1">
          <mxGeometry x="232.5" y="670" width="110" height="30" as="geometry" />
        </mxCell>
        <mxCell id="N1gCAhY11Nwy1vqOztYI-66" style="edgeStyle=none;rounded=0;orthogonalLoop=1;jettySize=auto;html=1;exitX=0.5;exitY=0;exitDx=0;exitDy=0;entryX=0.5;entryY=1;entryDx=0;entryDy=0;endArrow=none;endFill=0;" parent="1" source="N1gCAhY11Nwy1vqOztYI-42" target="N1gCAhY11Nwy1vqOztYI-9" edge="1">
          <mxGeometry relative="1" as="geometry" />
        </mxCell>
        <mxCell id="N1gCAhY11Nwy1vqOztYI-42" value="GoodM" style="ellipse;whiteSpace=wrap;html=1;fillColor=#E1D5E7;strokeColor=#56517e;" parent="1" vertex="1">
          <mxGeometry x="480" y="670" width="110" height="30" as="geometry" />
        </mxCell>
        <mxCell id="N1gCAhY11Nwy1vqOztYI-67" style="edgeStyle=none;rounded=0;orthogonalLoop=1;jettySize=auto;html=1;exitX=0.5;exitY=0;exitDx=0;exitDy=0;endArrow=none;endFill=0;" parent="1" source="N1gCAhY11Nwy1vqOztYI-43" edge="1">
          <mxGeometry relative="1" as="geometry">
            <mxPoint x="580" y="599.9999999999998" as="targetPoint" />
          </mxGeometry>
        </mxCell>
        <mxCell id="N1gCAhY11Nwy1vqOztYI-43" value="BadM" style="ellipse;whiteSpace=wrap;html=1;fillColor=#E1D5E7;strokeColor=#56517e;" parent="1" vertex="1">
          <mxGeometry x="600" y="670" width="110" height="30" as="geometry" />
        </mxCell>
        <mxCell id="N1gCAhY11Nwy1vqOztYI-60" style="edgeStyle=none;rounded=0;orthogonalLoop=1;jettySize=auto;html=1;exitX=0.5;exitY=1;exitDx=0;exitDy=0;endArrow=none;endFill=0;" parent="1" source="N1gCAhY11Nwy1vqOztYI-45" edge="1">
          <mxGeometry relative="1" as="geometry">
            <mxPoint x="580" y="329.9999999999998" as="targetPoint" />
          </mxGeometry>
        </mxCell>
        <mxCell id="N1gCAhY11Nwy1vqOztYI-45" value="Property" style="ellipse;whiteSpace=wrap;html=1;fillColor=#E1D5E7;strokeColor=#56517e;" parent="1" vertex="1">
          <mxGeometry x="480" y="130" width="110" height="30" as="geometry" />
        </mxCell>
        <mxCell id="N1gCAhY11Nwy1vqOztYI-61" style="edgeStyle=none;rounded=0;orthogonalLoop=1;jettySize=auto;html=1;exitX=0.5;exitY=1;exitDx=0;exitDy=0;endArrow=none;endFill=0;" parent="1" source="N1gCAhY11Nwy1vqOztYI-46" edge="1">
          <mxGeometry relative="1" as="geometry">
            <mxPoint x="580" y="329.9999999999998" as="targetPoint" />
          </mxGeometry>
        </mxCell>
        <mxCell id="N1gCAhY11Nwy1vqOztYI-46" value="Element" style="ellipse;whiteSpace=wrap;html=1;fillColor=#E1D5E7;strokeColor=#56517e;" parent="1" vertex="1">
          <mxGeometry x="595" y="130" width="110" height="30" as="geometry" />
        </mxCell>
        <mxCell id="N1gCAhY11Nwy1vqOztYI-65" style="edgeStyle=none;rounded=0;orthogonalLoop=1;jettySize=auto;html=1;exitX=0.5;exitY=1;exitDx=0;exitDy=0;entryX=0.5;entryY=0;entryDx=0;entryDy=0;endArrow=none;endFill=0;" parent="1" source="N1gCAhY11Nwy1vqOztYI-47" target="N1gCAhY11Nwy1vqOztYI-7" edge="1">
          <mxGeometry relative="1" as="geometry" />
        </mxCell>
        <mxCell id="N1gCAhY11Nwy1vqOztYI-47" value="Color" style="ellipse;whiteSpace=wrap;html=1;fillColor=#E1D5E7;strokeColor=#56517e;" parent="1" vertex="1">
          <mxGeometry x="705" y="220" width="110" height="30" as="geometry" />
        </mxCell>
        <mxCell id="N1gCAhY11Nwy1vqOztYI-62" style="edgeStyle=none;rounded=0;orthogonalLoop=1;jettySize=auto;html=1;exitX=0;exitY=1;exitDx=0;exitDy=0;endArrow=none;endFill=0;" parent="1" source="N1gCAhY11Nwy1vqOztYI-48" edge="1">
          <mxGeometry relative="1" as="geometry">
            <mxPoint x="580" y="329.9999999999998" as="targetPoint" />
          </mxGeometry>
        </mxCell>
        <mxCell id="N1gCAhY11Nwy1vqOztYI-48" value="LuckyNo" style="ellipse;whiteSpace=wrap;html=1;fillColor=#E1D5E7;strokeColor=#56517e;" parent="1" vertex="1">
          <mxGeometry x="705" y="170" width="110" height="30" as="geometry" />
        </mxCell>
        <mxCell id="N1gCAhY11Nwy1vqOztYI-58" style="edgeStyle=none;rounded=0;orthogonalLoop=1;jettySize=auto;html=1;exitX=0.5;exitY=1;exitDx=0;exitDy=0;entryX=0.5;entryY=0;entryDx=0;entryDy=0;endArrow=none;endFill=0;" parent="1" source="N1gCAhY11Nwy1vqOztYI-49" target="N1gCAhY11Nwy1vqOztYI-7" edge="1">
          <mxGeometry relative="1" as="geometry" />
        </mxCell>
        <mxCell id="N1gCAhY11Nwy1vqOztYI-49" value="hNo" style="ellipse;whiteSpace=wrap;html=1;fillColor=#E1D5E7;strokeColor=#56517e;" parent="1" vertex="1">
          <mxGeometry x="400" y="220" width="110" height="30" as="geometry" />
        </mxCell>
        <mxCell id="N1gCAhY11Nwy1vqOztYI-69" value="n" style="text;html=1;align=center;verticalAlign=middle;resizable=0;points=[];autosize=1;strokeColor=none;fillColor=none;" parent="1" vertex="1">
          <mxGeometry x="300" y="340" width="20" height="20" as="geometry" />
        </mxCell>
        <mxCell id="N1gCAhY11Nwy1vqOztYI-70" value="1" style="text;html=1;align=center;verticalAlign=middle;resizable=0;points=[];autosize=1;strokeColor=none;fillColor=none;" parent="1" vertex="1">
          <mxGeometry x="500" y="335" width="20" height="20" as="geometry" />
        </mxCell>
        <mxCell id="N1gCAhY11Nwy1vqOztYI-71" value="1" style="text;html=1;align=center;verticalAlign=middle;resizable=0;points=[];autosize=1;strokeColor=none;fillColor=none;" parent="1" vertex="1">
          <mxGeometry x="240" y="190" width="20" height="20" as="geometry" />
        </mxCell>
        <mxCell id="N1gCAhY11Nwy1vqOztYI-72" value="1" style="text;html=1;align=center;verticalAlign=middle;resizable=0;points=[];autosize=1;strokeColor=none;fillColor=none;" parent="1" vertex="1">
          <mxGeometry x="240" y="510" width="20" height="20" as="geometry" />
        </mxCell>
        <mxCell id="N1gCAhY11Nwy1vqOztYI-73" value="1" style="text;html=1;align=center;verticalAlign=middle;resizable=0;points=[];autosize=1;strokeColor=none;fillColor=none;" parent="1" vertex="1">
          <mxGeometry x="595" y="510" width="20" height="20" as="geometry" />
        </mxCell>
        <mxCell id="N1gCAhY11Nwy1vqOztYI-74" value="1" style="text;html=1;align=center;verticalAlign=middle;resizable=0;points=[];autosize=1;strokeColor=none;fillColor=none;" parent="1" vertex="1">
          <mxGeometry x="595" y="400" width="20" height="20" as="geometry" />
        </mxCell>
      </root>
    </mxGraphModel>
  </diagram>
</mxfile>
